<?xml version="1.0" encoding="UTF-8"?>
<svg id="Layer_1" data-name="Layer 1" xmlns="http://www.w3.org/2000/svg" viewBox="0 0 64 43.21">
  <defs>
    <style>
      .cls-1 {
        fill: #fff;
        stroke-width: 0px;
      }
    </style>
  </defs>
  <path class="cls-1" d="M63.43,15.87l-16.97,13.23c-.97.74-2.39.06-2.39-1.18v-7.33h-19.12c-1.65,0-2.98-1.33-2.98-2.95v-5.86c0-1.65,1.33-2.98,2.98-2.98h19.12V1.47c0-1.21,1.41-1.91,2.39-1.15l16.97,13.23c.77.59.77,1.74,0,2.33Z"/>
  <path class="cls-1" d="M.57,27.34l16.97-13.23c.97-.74,2.39-.06,2.39,1.18v7.33h19.12c1.65,0,2.98,1.33,2.98,2.95v5.86c0,1.65-1.33,2.98-2.98,2.98h-19.12v7.33c0,1.21-1.41,1.91-2.39,1.15L.57,29.67c-.77-.59-.77-1.74,0-2.33Z"/>
</svg>