<?xml version="1.0" encoding="UTF-8"?>
<svg id="Layer_1" data-name="Layer 1" xmlns="http://www.w3.org/2000/svg" viewBox="0 0 64 64">
  <defs>
    <style>
      .cls-1 {
        fill: #fff;
        stroke-width: 0px;
      }
    </style>
  </defs>
  <path class="cls-1" d="M64,17.66c0,.83-.34,1.58-.88,2.12l-14.67,14.67c-.59.59-1.35.88-2.12.88s-1.53-.29-2.12-.88c-1.17-1.17-1.17-3.07,0-4.24l9.55-9.55H3c-1.66,0-3-1.34-3-3,0-.82.34-1.58.88-2.12.54-.54,1.29-.88,2.12-.88h50.76l-9.55-9.54c-1.17-1.17-1.17-3.07,0-4.24.59-.59,1.35-.88,2.12-.88s1.53.29,2.12.88l12.55,12.54,2.14,2.14c.53.54.86,1.29.86,2.1Z"/>
  <path class="cls-1" d="M0,46.33C0,47.16.34,47.91.88,48.45l14.67,14.67c.59.59,1.35.88,2.12.88s1.53-.29,2.12-.88c1.17-1.17,1.17-3.07,0-4.24l-9.55-9.55h50.76c1.66,0,3-1.34,3-3,0-.82-.34-1.58-.88-2.12-.54-.54-1.29-.88-2.12-.88H10.24l9.55-9.54c1.17-1.17,1.17-3.07,0-4.24-.59-.59-1.35-.88-2.12-.88s-1.53.29-2.12.88l-12.55,12.54-2.14,2.14C.33,44.77,0,45.52,0,46.33Z"/>
</svg>