<?xml version="1.0" encoding="UTF-8"?>
<svg id="Layer_1" data-name="Layer 1" xmlns="http://www.w3.org/2000/svg" viewBox="0 0 54.5 64.12">
  <defs>
    <style>
      .cls-1 {
        fill: #fff;
        stroke-width: 0px;
      }
    </style>
  </defs>
  <path class="cls-1" d="M27.58,50.23v-4h8.25v-10.73h-7.83v-4h20c1.38,0,2.5-1.12,2.5-2.5V6.5c0-1.38-1.12-2.5-2.5-2.5H13c-1.38,0-2.5,1.12-2.5,2.5v14.5h-4V6.5c0-3.58,2.92-6.5,6.5-6.5h35c3.58,0,6.5,2.92,6.5,6.5v22.5c0,3.58-2.92,6.5-6.5,6.5h-8.17v10.73h6.03c1.22,0,2.22.9,2.22,2s-1,2-2.22,2h-18.28Z"/>
  <path class="cls-1" d="M4,64.12c-2.21,0-4-1.79-4-4v-29.99c0-2.21,1.79-4,4-4h14.99c2.21,0,4,1.79,4,4v29.99c0,2.21-1.79,4-4,4H4ZM4,60.12h15v-30H4v30Z"/>
  <rect class="cls-1" x="8.5" y="54.85" width="6" height="3" rx="1.5" ry="1.5"/>
</svg>