<?xml version="1.0" encoding="UTF-8"?>
<svg id="Layer_1" data-name="Layer 1" xmlns="http://www.w3.org/2000/svg" viewBox="0 0 64 64">
  <defs>
    <style>
      .cls-1 {
        fill: #fff;
        stroke-width: 0px;
      }
    </style>
  </defs>
  <path class="cls-1" d="M33.51,28c2.16-1.51,4.16-2.86,4.16-5.35s-1.84-4.43-5.72-4.43c-3.67,0-6.16,1.62-8.05,4.1l-3.13-3.46c2.65-3.4,6.7-5.45,11.72-5.45,6.7,0,10.75,3.67,10.75,8.42,0,4.48-3.08,6.7-5.89,8.64-2.16,1.57-4.16,2.92-4.16,5.18,0,.86.54,1.89,1.3,2.54l-4,1.51c-1.35-1.3-2-2.81-2-4.54,0-3.62,2.59-5.45,5.02-7.18ZM32,43.83c1.84,0,3.4,1.51,3.4,3.35s-1.57,3.4-3.4,3.4-3.35-1.57-3.35-3.4,1.51-3.35,3.35-3.35Z"/>
  <path class="cls-1" d="M32,4c15.44,0,28,12.56,28,28s-12.56,28-28,28S4,47.44,4,32,16.56,4,32,4M32,0C14.33,0,0,14.33,0,32s14.33,32,32,32,32-14.33,32-32S49.67,0,32,0h0Z"/>
</svg>