<?xml version="1.0" encoding="UTF-8"?>
<svg id="Layer_1" data-name="Layer 1" xmlns="http://www.w3.org/2000/svg" viewBox="0 0 52.5 64">
  <defs>
    <style>
      .cls-1 {
        fill: #fff;
        stroke-width: 0px;
      }
    </style>
  </defs>
  <path class="cls-1" d="M52.5,26.25v33.81c0,2.17-1.76,3.93-3.93,3.93h-9.64c-2.17,0-3.93-1.76-3.93-3.93v-11.82c0-2.17-1.76-3.93-3.93-3.93h-9.63c-2.17,0-3.93,1.76-3.93,3.93v11.82c0,2.17-1.76,3.93-3.93,3.93H3.93c-2.17,0-3.93-1.76-3.93-3.93V26.25c0-1.04.41-2.04,1.15-2.78L23.46,1.15c1.54-1.54,4.03-1.54,5.56,0l22.33,22.32c.74.74,1.15,1.74,1.15,2.78Z"/>
</svg>