<?xml version="1.0" encoding="UTF-8"?>
<svg id="Layer_1" data-name="Layer 1" xmlns="http://www.w3.org/2000/svg" viewBox="0 0 64 64">
  <defs>
    <style>
      .cls-1 {
        fill: #fff;
        stroke-width: 0px;
      }
    </style>
  </defs>
  <path class="cls-1" d="M51.72,21.33c-5,0-9.05-4.05-9.05-9.05v-7.49c0-2.64-2.14-4.79-4.79-4.79H4.79C2.14,0,0,2.14,0,4.79v33.09c0,2.64,2.14,4.79,4.79,4.79h7.49c5,0,9.05,4.05,9.05,9.05v7.49c0,2.64,2.14,4.79,4.79,4.79h33.09c2.64,0,4.79-2.14,4.79-4.79V26.12c0-2.64-2.14-4.79-4.79-4.79h-7.49ZM37.88,42.67h-11.76c-2.64,0-4.79-2.14-4.79-4.79v-11.76c0-2.64,2.14-4.79,4.79-4.79h11.76c2.64,0,4.79,2.14,4.79,4.79v11.76c0,2.64-2.14,4.79-4.79,4.79Z"/>
</svg>