<?xml version="1.0" encoding="UTF-8"?>
<svg id="Layer_1" data-name="Layer 1" xmlns="http://www.w3.org/2000/svg" viewBox="0 0 64 48">
  <defs>
    <style>
      .cls-1 {
        fill: #fff;
        stroke-width: 0px;
      }
    </style>
  </defs>
  <path class="cls-1" d="M59,0H5C2.24,0,0,2.34,0,5.22v37.57c0,2.88,2.24,5.22,5,5.22h54c2.76,0,5-2.34,5-5.22V5.22c0-2.88-2.24-5.22-5-5.22ZM4,42.78V5.22c0-.57.45-1.04,1-1.04h15v39.65H5c-.55,0-1-.47-1-1.04ZM60,42.78c0,.57-.45,1.04-1,1.04H24V4.17h35c.55,0,1,.47,1,1.04v37.57Z"/>
  <path class="cls-1" d="M50.32,24.17c0,.41-.17.79-.44,1.06l-6.45,6.45c-.58.59-1.54.59-2.12,0-.29-.3-.44-.68-.44-1.06s.15-.77.44-1.06l3.88-3.89h-14.25c-.83,0-1.5-.67-1.5-1.5s.67-1.5,1.5-1.5h14.26l-3.89-3.89c-.59-.58-.59-1.53,0-2.12.29-.29.68-.44,1.06-.44s.77.15,1.06.44l6.45,6.45c.27.27.44.65.44,1.06Z"/>
</svg>