<?xml version="1.0" encoding="UTF-8"?>
<svg id="Layer_1" data-name="Layer 1" xmlns="http://www.w3.org/2000/svg" xmlns:xlink="http://www.w3.org/1999/xlink" viewBox="0 0 225 40">
  <defs>
    <style>
      .cls-1 {
        fill: url(#linear-gradient);
      }

      .cls-1, .cls-2 {
        stroke-width: 0px;
      }

      .cls-2 {
        fill: #454eff;
      }
    </style>
    <linearGradient id="linear-gradient" x1="39.15" y1="39.09" x2=".85" y2=".91" gradientUnits="userSpaceOnUse">
      <stop offset="0" stop-color="#00a4e0"/>
      <stop offset=".9" stop-color="#454eff"/>
    </linearGradient>
  </defs>
  <path class="cls-1" d="M32.33,13.33c-3.13,0-5.66-2.53-5.66-5.66V2.99c0-1.65-1.34-2.99-2.99-2.99H2.99C1.34,0,0,1.34,0,2.99v20.68c0,1.65,1.34,2.99,2.99,2.99h4.68c3.13,0,5.66,2.53,5.66,5.66v4.68c0,1.65,1.34,2.99,2.99,2.99h20.68c1.65,0,2.99-1.34,2.99-2.99v-20.68c0-1.65-1.34-2.99-2.99-2.99h-4.68ZM23.67,26.67h-7.35c-1.65,0-2.99-1.34-2.99-2.99v-7.35c0-1.65,1.34-2.99,2.99-2.99h7.35c1.65,0,2.99,1.34,2.99,2.99v7.35c0,1.65-1.34,2.99-2.99,2.99Z"/>
  <path class="cls-2" d="M55,34.47V5h13.11c6.26,0,9.75,4.24,9.75,9.23s-3.53,9.23-9.75,9.23h-7.87v11h-5.23ZM67.39,9.55h-7.16v9.37h7.16c2.95,0,5.1-1.86,5.1-4.68s-2.15-4.68-5.1-4.68ZM91.01,12.6c6.49,0,10.65,4.9,10.65,11.62v1.1h-16.69c.36,3.22,2.82,5.88,6.89,5.88,2.1,0,4.61-.84,6.13-2.34l2.15,3.05c-2.15,2.03-5.32,3.09-8.77,3.09-6.49,0-11.32-4.46-11.32-11.22,0-6.19,4.56-11.18,10.96-11.18ZM84.93,22.06h12.17c-.09-2.52-1.83-5.66-6.08-5.66-4.03,0-5.86,3.05-6.08,5.66ZM115.93,12.6c6.49,0,10.65,4.9,10.65,11.62v1.1h-16.69c.36,3.22,2.82,5.88,6.89,5.88,2.1,0,4.61-.84,6.13-2.34l2.15,3.05c-2.15,2.03-5.32,3.09-8.77,3.09-6.49,0-11.32-4.46-11.32-11.22,0-6.19,4.56-11.18,10.96-11.18ZM109.85,22.06h12.17c-.09-2.52-1.83-5.66-6.08-5.66-4.03,0-5.86,3.05-6.08,5.66ZM131.23,34.47V13.13h4.7v3.14c1.61-2.03,4.21-3.62,7.02-3.62v4.59c-.4-.09-.89-.13-1.48-.13-1.97,0-4.61,1.33-5.55,2.83v14.54h-4.7ZM156.6,12.6c4.21,0,6.76,1.77,8.28,3.8l-3.09,2.83c-1.21-1.68-2.86-2.52-4.97-2.52-3.94,0-6.53,2.92-6.53,7.07s2.6,7.11,6.53,7.11c2.1,0,3.76-.88,4.97-2.52l3.09,2.83c-1.52,2.03-4.07,3.8-8.28,3.8-6.58,0-11.18-4.73-11.18-11.22s4.61-11.18,11.18-11.18ZM182.19,34.47v-2.3c-1.61,1.81-4.12,2.83-6.98,2.83-3.53,0-7.52-2.34-7.52-7.07s3.98-6.94,7.52-6.94c2.91,0,5.41.93,6.98,2.74v-3.18c0-2.47-2.06-3.98-5.06-3.98-2.42,0-4.52.88-6.4,2.7l-1.92-3.23c2.5-2.34,5.64-3.45,9.08-3.45,4.79,0,8.99,1.99,8.99,7.73v14.14h-4.7ZM182.19,26.38c-1.07-1.46-3.09-2.21-5.15-2.21-2.64,0-4.61,1.5-4.61,3.84s1.97,3.8,4.61,3.8c2.06,0,4.07-.75,5.15-2.21v-3.23ZM193.24,28.33c1.52,1.55,4.52,3,7.34,3s4.25-1.02,4.25-2.61c0-1.86-2.28-2.52-4.92-3.09-3.71-.79-8.14-1.77-8.14-6.54,0-3.49,3.04-6.5,8.5-6.5,3.67,0,6.44,1.28,8.41,3l-1.97,3.27c-1.3-1.46-3.71-2.56-6.4-2.56-2.46,0-4.03.88-4.03,2.39,0,1.63,2.15,2.21,4.7,2.78,3.76.8,8.37,1.86,8.37,6.89,0,3.76-3.18,6.63-8.99,6.63-3.67,0-7.02-1.15-9.26-3.31l2.15-3.36ZM215.02,29.52v-12.33h-3.58v-4.06h3.58v-5.83h4.7v5.83h4.38v4.06h-4.38v11.18c0,1.46.72,2.52,2.06,2.52.89,0,1.74-.35,2.1-.75l1.12,3.49c-.85.8-2.24,1.37-4.43,1.37-3.62,0-5.55-1.94-5.55-5.48Z"/>
</svg>