<?xml version="1.0" encoding="UTF-8"?>
<svg id="Layer_1" data-name="Layer 1" xmlns="http://www.w3.org/2000/svg" viewBox="0 0 65.27 68">
  <defs>
    <style>
      .cls-1 {
        fill: none;
        stroke: #fff;
        stroke-miterlimit: 10;
        stroke-width: 4px;
      }
    </style>
  </defs>
  <path class="cls-1" d="M43.97,53.63s-1.31.88-1.88,2.64-.64,7.28-1.85,8.49-1.32,1.25-7.6,1.25c-6.28,0-6.39-.04-7.6-1.25s-1.49-6.48-1.85-8.49-1.88-2.64-1.88-2.64c0,0-1.42-.7-3.22-.31s-6.62,3.08-8.28,2.64-1.74-.52-4.88-5.96-3.16-5.55-2.72-7.21,4.87-4.53,6.42-5.85,1.34-2.95,1.34-2.95c0,0-.11-1.57-1.34-2.95s-5.98-4.2-6.42-5.85-.42-1.77,2.72-7.21,3.23-5.52,4.88-5.96,6.36,1.95,8.28,2.64,3.22-.31,3.22-.31c0,0,1.31-.88,1.88-2.64s.64-7.28,1.85-8.49,1.32-1.25,7.6-1.25,6.39.04,7.6,1.25,1.49,6.48,1.85,8.49,1.88,2.64,1.88,2.64c0,0,1.42.7,3.22.31s6.62-3.08,8.28-2.64,1.74.52,4.88,5.96c3.14,5.44,3.16,5.55,2.72,7.21s-4.87,4.53-6.42,5.85-1.34,2.95-1.34,2.95c0,0,.11,1.57,1.34,2.95s5.98,4.2,6.42,5.85.42,1.77-2.72,7.21-3.23,5.52-4.88,5.96-6.36-1.95-8.28-2.64-3.22.31-3.22.31Z"/>
  <circle class="cls-1" cx="32.64" cy="34" r="10.17"/>
</svg>