<?xml version="1.0" encoding="UTF-8"?>
<svg id="Layer_1" data-name="Layer 1" xmlns="http://www.w3.org/2000/svg" viewBox="0 0 58.65 64">
  <defs>
    <style>
      .cls-1 {
        fill: #fff;
        stroke-width: 0px;
      }
    </style>
  </defs>
  <path class="cls-1" d="M17,42.08c-5.93,0-10.75-4.82-10.75-10.75s4.82-10.75,10.75-10.75,10.75,4.82,10.75,10.75-4.82,10.75-10.75,10.75ZM17,24.58c-3.72,0-6.75,3.03-6.75,6.75s3.03,6.75,6.75,6.75,6.75-3.03,6.75-6.75-3.03-6.75-6.75-6.75Z"/>
  <path class="cls-1" d="M35.98,31.33c-.13,0-.26-.01-.39-.04-.69-.14-1.26-.62-1.5-1.29l-2.17-6.04-3.35-.06c-2.44-.04-4.42-2.06-4.42-4.5V4.5c0-1.21.47-2.34,1.33-3.19.85-.85,1.97-1.31,3.17-1.31h25.52c2.47.01,4.48,2.15,4.48,4.62v14.88c0,2.48-2.02,4.5-4.5,4.5h-10.68l-6,6.66c-.38.43-.93.66-1.49.66ZM28.65,4c-.17,0-.28.08-.35.15-.07.07-.15.18-.15.35v15c0,.27.22.4.49.4l4.73.08c.83.01,1.57.54,1.85,1.32l1.51,4.2,4.36-4.84c.38-.42.92-.66,1.49-.66h11.58c.27,0,.5-.23.5-.5V4.5c0-.27-.22-.5-.5-.5h-25.5Z"/>
  <path class="cls-1" d="M33.99,49.04s0-.03,0-.04c-.09-2.23-2.01-3.96-4.24-3.96H4.26c-2.23,0-4.16,1.73-4.24,3.96,0,.01,0,.03,0,.04-.01.15-.01.31-.01.46,0,8,7.63,14.5,17,14.5s17-6.5,17-14.5c0-.15,0-.31-.01-.46ZM17,60c-7.17,0-13-4.71-13-10.5,0-.15,0-.31.02-.46h25.96c.02.15.02.31.02.46,0,5.79-5.83,10.5-13,10.5Z"/>
</svg>